HIERARCHY
ROOT hip
{
  OFFSET 0 0 0
  CHANNELS 6 Xposition Yposition Zposition Zrotation Yrotation Xrotation
  JOINT abdomen
  {
    OFFSET 0 20.6881 -0.73152
    CHANNELS 3 Zrotation Xrotation Yrotation
    JOINT chest
    {
      OFFSET 0 11.7043 -0.48768
      CHANNELS 3 Zrotation Xrotation Yrotation
      JOINT neck
      {
        OFFSET 0 22.1894 -2.19456
        CHANNELS 3 Zrotation Xrotation Yrotation
        JOINT head
        {
          OFFSET -0.24384 7.07133 1.2192
          CHANNELS 3 Zrotation Xrotation Yrotation
          JOINT leftEye
          {
            OFFSET 4.14528 8.04674 8.04672
            CHANNELS 3 Zrotation Xrotation Yrotation
            End Site
            {
              OFFSET 1 0 0
            }
          }
          JOINT rightEye
          {
            OFFSET -3.6576 8.04674 8.04672
            CHANNELS 3 Zrotation Xrotation Yrotation
            End Site
            {
              OFFSET 1 0 0
            }
          }
        }
      }
      JOINT rCollar
      {
        OFFSET -2.68224 19.2634 -4.8768
        CHANNELS 3 Zrotation Xrotation Yrotation
        JOINT rShldr
        {
          OFFSET -8.77824 -1.95073 1.46304
          CHANNELS 3 Zrotation Xrotation Yrotation
          JOINT rForeArm
          {
            OFFSET -28.1742 -1.7115 0.48768
            CHANNELS 3 Zrotation Xrotation Yrotation
            JOINT rHand
            {
              OFFSET -22.5879 0.773209 7.07136
              CHANNELS 3 Zrotation Xrotation Yrotation
              JOINT rThumb1
              {
                OFFSET -1.2192 -0.487915 3.41376
                CHANNELS 3 Zrotation Xrotation Yrotation
                JOINT rThumb2
                {
                  OFFSET -3.37035 -0.52449 3.41376
                  CHANNELS 3 Zrotation Xrotation Yrotation
                  End Site
                  {
                    OFFSET -1.78271 -1.18214 1.43049
                  }
                }
              }
              JOINT rIndex1
              {
                OFFSET -7.75947 0.938293 5.60832
                CHANNELS 3 Zrotation Xrotation Yrotation
                JOINT rIndex2
                {
                  OFFSET -2.54057 -0.884171 1.56538
                  CHANNELS 3 Zrotation Xrotation Yrotation
                  End Site
                  {
                    OFFSET -1.62519 -0.234802 1.16502
                  }
                }
              }
              JOINT rMid1
              {
                OFFSET -8.24714 1.18213 3.41376
                CHANNELS 3 Zrotation Xrotation Yrotation
                JOINT rMid2
                {
                  OFFSET -3.10165 -0.590103 1.0647
                  CHANNELS 3 Zrotation Xrotation Yrotation
                  End Site
                  {
                    OFFSET -2.48547 -0.328903 0.83742
                  }
                }
              }
              JOINT rRing1
              {
                OFFSET -8.82822 0.546677 1.51678
                CHANNELS 3 Zrotation Xrotation Yrotation
                JOINT rRing2
                {
                  OFFSET -2.60934 -0.819778 -0.0198488
                  CHANNELS 3 Zrotation Xrotation Yrotation
                  End Site
                  {
                    OFFSET -2.33842 -0.294052 0.168128
                  }
                }
              }
              JOINT rPinky1
              {
                OFFSET -8.27202 -0.0477905 -0.4584
                CHANNELS 3 Zrotation Xrotation Yrotation
                JOINT rPinky2
                {
                  OFFSET -1.82734 -0.647385 -0.700984
                  CHANNELS 3 Zrotation Xrotation Yrotation
                  End Site
                  {
                    OFFSET -1.69225 -0.51767 -0.607171
                  }
                }
              }
            }
          }
        }
      }
      JOINT lCollar
      {
        OFFSET 2.68224 19.2634 -4.8768
        CHANNELS 3 Zrotation Xrotation Yrotation
        JOINT lShldr
        {
          OFFSET 8.77824 -1.95073 1.46304
          CHANNELS 3 Zrotation Xrotation Yrotation
          JOINT lForeArm
          {
            OFFSET 28.1742 -1.7115 0.48768
            CHANNELS 3 Zrotation Xrotation Yrotation
            JOINT lHand
            {
              OFFSET 22.5879 0.773209 7.07136
              CHANNELS 3 Zrotation Xrotation Yrotation
              JOINT lThumb1
              {
                OFFSET 1.2192 -0.487915 3.41376
                CHANNELS 3 Zrotation Xrotation Yrotation
                JOINT lThumb2
                {
                  OFFSET 3.37035 -0.52449 3.41376
                  CHANNELS 3 Zrotation Xrotation Yrotation
                  End Site
                  {
                    OFFSET 1.78271 -1.18214 1.43049
                  }
                }
              }
              JOINT lIndex1
              {
                OFFSET 7.75947 0.938293 5.60832
                CHANNELS 3 Zrotation Xrotation Yrotation
                JOINT lIndex2
                {
                  OFFSET 2.54057 -0.884171 1.56538
                  CHANNELS 3 Zrotation Xrotation Yrotation
                  End Site
                  {
                    OFFSET 1.62519 -0.234802 1.16502
                  }
                }
              }
              JOINT lMid1
              {
                OFFSET 8.24714 1.18213 3.41376
                CHANNELS 3 Zrotation Xrotation Yrotation
                JOINT lMid2
                {
                  OFFSET 3.10165 -0.590103 1.0647
                  CHANNELS 3 Zrotation Xrotation Yrotation
                  End Site
                  {
                    OFFSET 2.48547 -0.328903 0.83742
                  }
                }
              }
              JOINT lRing1
              {
                OFFSET 8.82822 0.546677 1.51678
                CHANNELS 3 Zrotation Xrotation Yrotation
                JOINT lRing2
                {
                  OFFSET 2.60934 -0.819778 -0.0198488
                  CHANNELS 3 Zrotation Xrotation Yrotation
                  End Site
                  {
                    OFFSET 2.33842 -0.294052 0.168128
                  }
                }
              }
              JOINT lPinky1
              {
                OFFSET 8.27202 -0.0477905 -0.4584
                CHANNELS 3 Zrotation Xrotation Yrotation
                JOINT lPinky2
                {
                  OFFSET 1.82734 -0.647385 -0.700984
                  CHANNELS 3 Zrotation Xrotation Yrotation
                  End Site
                  {
                    OFFSET 1.69225 -0.51767 -0.607171
                  }
                }
              }
            }
          }
        }
      }
    }
  }
  JOINT rButtock
  {
    OFFSET -8.77824 4.35084 1.2192
    CHANNELS 3 Zrotation Xrotation Yrotation
    JOINT rThigh
    {
      OFFSET 0 -1.70687 -2.19456
      CHANNELS 3 Zrotation Xrotation Yrotation
      JOINT rShin
      {
        OFFSET 0 -36.8199 0.73152
        CHANNELS 3 Zrotation Xrotation Yrotation
        JOINT rFoot
        {
          OFFSET 0.73152 -45.1104 -5.12064
          CHANNELS 3 Zrotation Xrotation Yrotation
          End Site
          {
            OFFSET -1.1221 -3.69964 12.103
          }
        }
      }
    }
  }
  JOINT lButtock
  {
    OFFSET 8.77824 4.35084 1.2192
    CHANNELS 3 Zrotation Xrotation Yrotation
    JOINT lThigh
    {
      OFFSET 0 -1.70687 -2.19456
      CHANNELS 3 Zrotation Xrotation Yrotation
      JOINT lShin
      {
        OFFSET 0 -36.8199 0.73152
        CHANNELS 3 Zrotation Xrotation Yrotation
        JOINT lFoot
        {
          OFFSET -0.73152 -45.1104 -5.12064
          CHANNELS 3 Zrotation Xrotation Yrotation
          End Site
          {
            OFFSET 1.1221 -3.69964 12.103
          }
        }
      }
    }
  }
}
MOTION
Frames:	4
Frame Time:	0.03333
0.7372000144641788 76.09879970550537 4.7950000182027 0.08200760930776596 1.242430567741394 3.311492681503296 -5.029241561889648 2.8901774883270264 13.099891662597656 0.07334821671247482 -6.792703628540039 3.6553900241851807 -7.285534858703613 11.315804481506348 -7.87427282333374 8.756539344787598 -13.048001289367676 -13.742400169372559 -0.0 0.0 -0.0 -0.0 0.0 -0.0 -0.0 -0.0 -0.0 -48.06180953979492 51.658504486083984 122.56401062011719 -28.16779327392578 -31.714513778686523 69.98209381103516 -0.007068353239446878 -2.4003183841705322 -0.33739396929740906 -0.0 0.0 -0.0 -0.0 0.0 -0.0 -0.0 0.0 -0.0 7.730902194976807 5.47491455078125 0.4173222780227661 -0.0 0.0 -0.0 2.905566453933716 0.9650754332542419 0.10300818830728531 -0.0 0.0 -0.0 10.278596878051758 0.7318810820579529 0.026273518800735474 -0.0 0.0 -0.0 2.221662998199463 -0.7334509491920471 -0.20832103490829468 -0.0 -0.0 -0.0 -112.53898620605469 63.38509750366211 56.33979797363281 28.134008407592773 -39.63799285888672 -83.2754898071289 5.496116864378564e-05 -0.22511935234069824 0.027976617217063904 -0.0 0.0 0.0 -0.0 0.0 0.0 -0.0 0.0 0.0 -7.730902194976807 5.47491455078125 -0.4173222780227661 -0.0 0.0 0.0 -2.905566453933716 0.9650754332542419 -0.10300818830728531 -0.0 0.0 0.0 -10.278596878051758 0.7318810820579529 -0.026273518800735474 -0.0 0.0 0.0 -2.221662998199463 -0.7334509491920471 0.20832103490829468 -0.0 0.0 -0.0 4.473278522491455 -32.77338790893555 1.6900277137756348 -0.8803006410598755 57.10913848876953 1.4256750345230103 -1.3424620628356934 -21.943204879760742 -2.2907824516296387 0.0 0.0 0.0 -9.300969123840332 -32.17909622192383 -4.983984470367432 0.7823889851570129 55.96701431274414 -1.4302661418914795 5.239688873291016 -21.795299530029297 10.319496154785156
0.7660000154828595 76.05500221252441 4.825000019627623 0.08786142617464066 1.1984102725982666 3.340230703353882 -5.0458455085754395 2.8388350009918213 13.160199165344238 0.05172890052199364 -6.781457424163818 3.671663522720337 -7.260778427124023 11.382797241210938 -7.89267635345459 8.697450637817383 -13.063904762268066 -13.79190731048584 -0.0 0.0 -0.0 -0.0 0.0 -0.0 -0.0 -0.0 -0.0 -48.137298583984375 51.76559066772461 122.6709976196289 -28.16959571838379 -31.724306106567383 69.99530029296875 -0.00886948499828577 -2.6883385181427 -0.3779948353767395 -0.0 0.0 -0.0 -0.0 0.0 -0.0 -0.0 0.0 -0.0 7.730902194976807 5.47491455078125 0.4173222780227661 -0.0 0.0 -0.0 2.905566453933716 0.9650754332542419 0.10300818830728531 -0.0 0.0 -0.0 10.278596878051758 0.7318810820579529 0.026273518800735474 -0.0 0.0 -0.0 2.221662998199463 -0.7334509491920471 -0.20832103490829468 -0.0 -0.0 -0.0 -112.69501495361328 63.31629943847656 56.51911544799805 28.139801025390625 -39.60019302368164 -83.20819854736328 -0.0 -0.08392937481403351 -0.0 -0.0 0.0 0.0 -0.0 0.0 0.0 -0.0 0.0 0.0 -7.730902194976807 5.47491455078125 -0.4173222780227661 -0.0 0.0 0.0 -2.905566453933716 0.9650754332542419 -0.10300818830728531 -0.0 0.0 0.0 -10.278596878051758 0.7318810820579529 -0.026273518800735474 -0.0 0.0 0.0 -2.221662998199463 -0.7334509491920471 0.20832103490829468 -0.0 0.0 -0.0 4.417971134185791 -32.84851837158203 1.6952944993972778 -0.8898778557777405 57.237693786621094 1.4349037408828735 -1.340823769569397 -22.033794403076172 -2.281898260116577 0.0 0.0 0.0 -9.311042785644531 -32.23140335083008 -4.873084545135498 0.7864629626274109 56.052825927734375 -1.4353212118148804 5.2452850341796875 -21.871503829956055 10.30400562286377
0.7879000148932391 76.01190209388733 4.8580000206129625 0.12958924472332 1.1407406330108643 3.3760695457458496 -5.041492462158203 2.768460512161255 13.222386360168457 0.05896119400858879 -6.745339870452881 3.6907029151916504 -7.2047224044799805 11.450504302978516 -7.90361213684082 8.513092994689941 -13.141793251037598 -13.839493751525879 -0.0 0.0 -0.0 -0.0 0.0 -0.0 -0.0 -0.0 -0.0 -48.23569869995117 51.814598083496094 122.72100067138672 -28.173898696899414 -31.7489070892334 70.0281982421875 -0.009380769915878773 -2.764617681503296 -0.38874971866607666 -0.0 -0.0 -0.0 -0.0 -0.0 -0.0 -0.0 -0.0 -0.0 7.730902194976807 5.47491455078125 0.4173222780227661 -0.0 -0.0 -0.0 2.905566453933716 0.9650754332542419 0.10300818830728531 -0.0 -0.0 -0.0 10.278596878051758 0.7318810820579529 0.026273518800735474 -0.0 -0.0 -0.0 2.221662998199463 -0.7334509491920471 -0.20832103490829468 -0.0 -0.0 -0.0 -112.79097747802734 63.230186462402344 56.6293830871582 28.14580726623535 -39.56070327758789 -83.13810729980469 9.365187725052238e-05 0.27124205231666565 -0.039565011858940125 -0.0 0.0 0.0 -0.0 0.0 0.0 -0.0 0.0 0.0 -7.730902194976807 5.47491455078125 -0.4173222780227661 -0.0 0.0 0.0 -2.905566453933716 0.9650754332542419 -0.10300818830728531 -0.0 0.0 0.0 -10.278596878051758 0.7318810820579529 -0.026273518800735474 -0.0 0.0 0.0 -2.221662998199463 -0.7334509491920471 0.20832103490829468 -0.0 0.0 -0.0 4.357934474945068 -32.9484977722168 1.675233006477356 -0.8953697085380554 57.36940002441406 1.4409033060073853 -1.3069833517074585 -22.1377010345459 -2.206852912902832 0.0 0.0 0.0 -9.306488037109375 -32.30640411376953 -4.764551639556885 0.7814443707466125 56.143394470214844 -1.4354755878448486 5.244852542877197 -21.9551944732666 10.273194313049316
0.8053000149629952 75.9634017944336 4.891000021598302 0.15322376787662506 1.0761131048202515 3.3971714973449707 -5.055120944976807 2.7395427227020264 13.285191535949707 0.0694693848490715 -6.719796180725098 3.709226369857788 -7.176208019256592 11.478694915771484 -7.8851776123046875 8.433844566345215 -13.175198554992676 -13.814692497253418 -0.0 0.0 -0.0 -0.0 0.0 -0.0 -0.0 0.0 0.0 -48.27779769897461 51.80360794067383 122.71500396728516 -28.176599502563477 -31.765701293945312 70.05180358886719 -0.009864294901490211 -2.8343639373779297 -0.39872434735298157 -0.0 0.0 -0.0 -0.0 0.0 -0.0 -0.0 0.0 -0.0 7.730902194976807 5.47491455078125 0.4173222780227661 -0.0 0.0 -0.0 2.905566453933716 0.9650754332542419 0.10300818830728531 -0.0 0.0 -0.0 10.278596878051758 0.7318810820579529 0.026273518800735474 -0.0 0.0 -0.0 2.221662998199463 -0.7334509491920471 -0.20832103490829468 -0.0 0.0 0.0 -112.87701416015625 63.194602966308594 56.73750686645508 28.147008895874023 -39.552589416503906 -83.12379455566406 0.00017227145144715905 0.3771643340587616 -0.052340004593133926 -0.0 0.0 0.0 -0.0 0.0 0.0 -0.0 0.0 0.0 -7.730902194976807 5.47491455078125 -0.4173222780227661 -0.0 0.0 0.0 -2.905566453933716 0.9650754332542419 -0.10300818830728531 -0.0 0.0 0.0 -10.278596878051758 0.7318810820579529 -0.026273518800735474 -0.0 0.0 0.0 -2.221662998199463 -0.7334509491920471 0.20832103490829468 -0.0 0.0 -0.0 4.317962646484375 -33.02751159667969 1.6941720247268677 -0.9036416411399841 57.50968933105469 1.4495106935501099 -1.2979174852371216 -22.24040412902832 -2.182730197906494 0.0 0.0 0.0 -9.296331405639648 -32.359493255615234 -4.639039993286133 0.7955774664878845 56.2406120300293 -1.4466853141784668 5.2531538009643555 -22.03659439086914 10.261202812194824
